0
SECTION
2
HEADER
9
$INSUNITS
70
4
9
$ACADVER
1
AC1014
9
$HANDSEED
5
FFFF
0
ENDSEC
0
SECTION
2
TABLES
0
TABLE
2
VPORT
5
8
100
AcDbSymbolTable
0
ENDTAB
0
TABLE
2
LTYPE
5
5
100
AcDbSymbolTable
0
LTYPE
5
14
100
AcDbSymbolTableRecord
100
AcDbLinetypeTableRecord
2
BYBLOCK
70
0
0
LTYPE
5
15
100
AcDbSymbolTableRecord
100
AcDbLinetypeTableRecord
2
BYLAYER
70
0
0
ENDTAB
0
TABLE
2
LAYER
5
2
100
AcDbSymbolTable
70
2
0
LAYER
5
50
100
AcDbSymbolTableRecord
100
AcDbLayerTableRecord
2
0
70
0
6
CONTINUOUS
0
ENDTAB
0
TABLE
2
STYLE
5
3
100
AcDbSymbolTable
70
1
0
STYLE
5
11
100
AcDbSymbolTableRecord
100
AcDbTextStyleTableRecord
2
STANDARD
70
0
0
ENDTAB
0
TABLE
2
VIEW
5
6
100
AcDbSymbolTable
70
0
0
ENDTAB
0
TABLE
2
UCS
5
7
100
AcDbSymbolTable
70
0
0
ENDTAB
0
TABLE
2
APPID
5
9
100
AcDbSymbolTable
70
2
0
APPID
5
12
100
AcDbSymbolTableRecord
100
AcDbRegAppTableRecord
2
ACAD
70
0
0
ENDTAB
0
TABLE
2
DIMSTYLE
5
A
100
AcDbSymbolTable
70
1
0
ENDTAB
0
TABLE
2
BLOCK_RECORD
5
1
100
AcDbSymbolTable
70
1
0
BLOCK_RECORD
5
1F
100
AcDbSymbolTableRecord
100
AcDbBlockTableRecord
2
*MODEL_SPACE
0
BLOCK_RECORD
5
1B
100
AcDbSymbolTableRecord
100
AcDbBlockTableRecord
2
*PAPER_SPACE
0
ENDTAB
0
ENDSEC
0
SECTION
2
BLOCKS
0
BLOCK
5
20
100
AcDbEntity
100
AcDbBlockBegin
2
*MODEL_SPACE
0
ENDBLK
5
21
100
AcDbEntity
100
AcDbBlockEnd
0
BLOCK
5
1C
100
AcDbEntity
100
AcDbBlockBegin
2
*PAPER_SPACE
0
ENDBLK
5
1D
100
AcDbEntity
100
AcDbBlockEnd
0
ENDSEC
0
SECTION
2
ENTITIES
0
LWPOLYLINE
5
100
100
AcDbEntity
8
0
100
AcDbPolyline
90
8
70
1
43
0.0
10
-139.8501
20
92.724999999999994
10
-117.32500000000002
20
92.724999999999994
42
-0.41421356237309503
10
-116.82500000000002
20
92.22499999999998
10
-116.82500000000002
20
79.22499999999998
42
-0.41421356237309503
10
-117.32500000000002
20
78.724999999999994
10
-139.8501
20
78.72499999999998
42
-0.41421356237307422
10
-140.35010000000003
20
79.22499999999998
10
-140.35010000000003
20
92.22499999999998
42
-0.4142135623730534
0
LWPOLYLINE
5
101
100
AcDbEntity
8
0
100
AcDbPolyline
90
24
70
1
43
0.0
10
-242.86250000000001
20
37.574999999999989
42
0.41421356237309503
10
-242.36250000000001
20
38.074999999999982
10
-242.36250000000001
20
56.124999999999986
42
-0.41421356237309503
10
-241.86250000000001
20
56.624999999999986
10
-233.33750000000003
20
56.624999999999986
42
0.41421356237309503
10
-232.83750000000001
20
57.124999999999986
10
-232.83750000000001
20
75.174999999999997
42
-0.41421356237309503
10
-232.33750000000001
20
75.674999999999983
10
-43.887499999999982
20
75.674999999999983
42
-0.41421356237309503
10
-43.387499999999982
20
75.174999999999997
10
-43.38750000000001
20
57.124999999999986
42
0.41421356237309503
10
-42.887500000000003
20
56.624999999999986
10
-34.362500000000011
20
56.625
42
-0.41421356237310025
10
-33.862500000000004
20
56.125
10
-33.862500000000004
20
38.074999999999989
42
0.41421356237309764
10
-33.362499999999997
20
37.574999999999996
10
-29.600000000000009
20
37.574999999999996
42
-0.41421356237310025
10
-29.100000000000001
20
37.075000000000003
10
-29.100000000000001
20
20.075000000000003
42
-0.41421356237309503
10
-29.600000000000001
20
19.575000000000003
10
-256.15000000000003
20
19.574999999999996
42
-0.41421356237309503
10
-256.65000000000003
20
20.075000000000003
10
-256.65000000000003
20
37.074999999999989
42
-0.41421356237309503
10
-256.15000000000003
20
37.574999999999989
0
LWPOLYLINE
5
102
100
AcDbEntity
8
0
100
AcDbPolyline
90
8
70
1
43
0.0
10
-168.44999999999999
20
77.724999999999994
42
0.41421356237309503
10
-167.94999999999999
20
78.224999999999994
10
-167.94999999999999
20
92.224999999999994
42
0.41421356237309503
10
-168.44999999999999
20
92.725000000000009
10
-174.44999999999999
20
92.725000000000009
42
0.41421356237309503
10
-174.95000000000002
20
92.224999999999994
10
-174.95000000000002
20
78.224999999999994
42
0.41421356237309503
10
-174.44999999999999
20
77.724999999999994
0
LWPOLYLINE
5
103
100
AcDbEntity
8
0
100
AcDbPolyline
90
8
70
1
43
0.0
10
-83.96875
20
92.724999999999994
10
-73.200000000000003
20
92.725000000000009
42
-0.41421356237309503
10
-72.700000000000003
20
92.224999999999994
10
-72.699999999999989
20
78.224999999999994
42
-0.41421356237309503
10
-73.200000000000003
20
77.724999999999994
10
-83.96875
20
77.724999999999994
42
-0.41421356237309503
10
-84.46875
20
78.224999999999994
10
-84.468749999999986
20
92.224999999999994
42
-0.41421356237309503
0
LWPOLYLINE
5
104
100
AcDbEntity
8
0
100
AcDbPolyline
90
11
70
1
43
0.0
10
-26.837499999999999
20
78.724999999999994
10
-63.174999999999997
20
78.724999999999994
10
-63.174999999999997
20
78.224999999999994
42
-0.41421356237309503
10
-63.674999999999997
20
77.724999999999994
10
-69.674999999999997
20
77.724999999999994
42
-0.41421356237309503
10
-70.174999999999997
20
78.224999999999994
10
-70.175000000000011
20
92.224999999999994
42
-0.41421356237309503
10
-69.674999999999997
20
92.725000000000009
10
-26.837499999999999
20
92.724999999999966
42
-0.41421356237309503
10
-26.337499999999999
20
92.22499999999998
10
-26.337499999999999
20
79.22499999999998
42
-0.41421356237309503
0
LWPOLYLINE
5
105
100
AcDbEntity
8
0
100
AcDbPolyline
90
8
70
1
43
0.0
10
-5.40625
20
78.724999999999994
10
-20.787500000000001
20
78.724999999999994
42
-0.41421356237309503
10
-21.287500000000001
20
79.22499999999998
10
-21.287500000000009
20
92.22499999999998
42
-0.41421356237309503
10
-20.787500000000001
20
92.724999999999994
10
-5.4062499999999991
20
92.724999999999994
42
-0.41421356237309437
10
-4.90625
20
92.22499999999998
10
-4.9062500000000018
20
79.22499999999998
42
-0.41421356237309503
0
LWPOLYLINE
5
106
100
AcDbEntity
8
0
100
AcDbPolyline
90
8
70
1
43
0.0
10
-243.53125000000003
20
59.675000000000004
10
-256.53125
20
59.674999999999997
42
-0.41421356237309503
10
-257.03125000000006
20
60.174999999999997
10
-257.03125000000006
20
73.174999999999997
42
-0.41421356237309503
10
-256.53125
20
73.674999999999997
10
-243.53125000000003
20
73.675000000000011
42
-0.41421356237309503
10
-243.03125
20
73.174999999999997
10
-243.03125
20
60.174999999999997
42
-0.41421356237309503
0
LWPOLYLINE
5
107
100
AcDbEntity
8
0
100
AcDbPolyline
90
20
70
1
43
0.0
10
-12.99325
20
73.674999999999997
10
-12.993249999999998
20
75.174999999999997
42
-0.41421356237309503
10
-12.49325
20
75.674999999999997
10
-6.4932500000000006
20
75.674999999999997
42
-0.41421356237309503
10
-5.9932499999999997
20
75.174999999999997
10
-5.9932499999999997
20
73.674999999999997
10
-5.40625
20
73.674999999999997
42
-0.41421356237309503
10
-4.90625
20
73.174999999999997
10
-4.9062500000000018
20
60.174999999999997
42
-0.41421356237309503
10
-5.40625
20
59.675000000000004
10
-39.837499999999999
20
59.674999999999997
42
-0.41421356237309503
10
-40.337500000000006
20
60.174999999999997
10
-40.337499999999991
20
73.174999999999997
42
-0.41421356237309503
10
-39.837499999999999
20
73.674999999999997
10
-36.869250000000008
20
73.674999999999997
10
-36.869250000000001
20
75.174999999999997
42
-0.41421356237309503
10
-36.369250000000001
20
75.674999999999997
10
-30.369250000000001
20
75.674999999999997
42
-0.41421356237309503
10
-29.869250000000001
20
75.174999999999997
10
-29.869250000000001
20
73.674999999999997
0
LWPOLYLINE
5
108
100
AcDbEntity
8
0
100
AcDbPolyline
90
42
70
1
43
0.0
10
-279.84375000000006
20
23.161999999999999
10
-279.84375000000006
20
29.161999999999999
42
-0.41421356237309503
10
-279.34375
20
29.661999999999999
10
-278.46249999999998
20
29.662000000000003
10
-278.46249999999998
20
31.100000000000001
10
-280.34375
20
31.099999999999994
42
-0.41421356237309503
10
-280.84375
20
31.600000000000001
10
-280.84375
20
44.600000000000001
42
-0.41421356237309503
10
-280.34375
20
45.099999999999994
10
-279.75675000000001
20
45.100000000000009
10
-279.75675000000001
20
46.756164941854259
42
-0.15083409114179364
10
-279.84375000000006
20
47.038000000000004
10
-279.84375000000006
20
53.038000000000011
42
-0.15083409114178239
10
-279.75675000000001
20
53.319835058145728
10
-279.75675000000001
20
56.125000000000007
42
-0.41421356237309503
10
-279.25675000000001
20
56.625000000000007
10
-273.25675000000001
20
56.625000000000014
42
-0.41421356237309503
10
-272.75675000000001
20
56.125000000000007
10
-272.75675000000001
20
53.538000000000004
10
-271.31875000000002
20
53.538000000000004
10
-271.31875000000002
20
54.125000000000007
42
-0.41421356237309503
10
-270.81875000000002
20
54.625
10
-255.88075000000003
20
54.625
10
-255.88075000000003
20
56.125000000000007
42
-0.41421356237309503
10
-255.38075000000003
20
56.625000000000007
10
-249.38075000000001
20
56.625000000000014
42
-0.41421356237309503
10
-248.88075000000001
20
56.125000000000007
10
-248.88075000000001
20
54.625
10
-245.91250000000002
20
54.625000000000014
42
-0.41421356237309503
10
-245.41250000000002
20
54.125000000000007
10
-245.41250000000002
20
41.125
42
-0.41421356237309503
10
-245.91250000000002
20
40.625
10
-266.84375
20
40.625
10
-266.84375
20
35.575000000000003
10
-264.96249999999998
20
35.57500000000001
42
-0.41421356237309503
10
-264.46249999999998
20
35.075000000000003
10
-264.46249999999998
20
22.074999999999999
42
-0.41421356237309503
10
-264.96249999999998
20
21.575000000000003
10
-277.96249999999998
20
21.574999999999992
42
-0.41421356237309503
10
-278.46250000000003
20
22.074999999999999
10
-278.46250000000003
20
22.661999999999999
10
-279.34375
20
22.661999999999992
42
-0.41421356237309503
0
LWPOLYLINE
5
109
100
AcDbEntity
8
0
100
AcDbPolyline
90
8
70
1
43
0.0
10
-23.168749999999999
20
54.625
10
-5.4062499999999991
20
54.625
42
-0.41421356237309437
10
-4.90625
20
54.125000000000007
10
-4.9062500000000018
20
41.125
42
-0.41421356237309503
10
-5.40625
20
40.625
10
-23.168749999999999
20
40.625
42
-0.41421356237309503
10
-23.668749999999999
20
41.125
10
-23.668749999999999
20
54.125000000000007
42
-0.41421356237309503
0
LWPOLYLINE
5
110
100
AcDbEntity
8
0
100
AcDbPolyline
90
8
70
1
43
0.0
10
-7.7875000000000005
20
21.575000000000003
10
-20.787500000000001
20
21.575000000000003
42
-0.41421356237309503
10
-21.287500000000001
20
22.074999999999999
10
-21.287500000000001
20
35.075000000000003
42
-0.41421356237309503
10
-20.787500000000001
20
35.575000000000003
10
-7.7875000000000005
20
35.575000000000003
42
-0.41421356237309503
10
-7.2874999999999996
20
35.075000000000003
10
-7.2875000000000023
20
22.074999999999999
42
-0.41421356237309503
0
LWPOLYLINE
5
111
100
AcDbEntity
8
0
100
AcDbPolyline
90
8
70
1
43
0.0
10
-212.57499999999999
20
2.5249999999999999
10
-225.57500000000002
20
2.5249999999999928
42
-0.41421356237309503
10
-226.07500000000002
20
3.0249999999999999
10
-226.07500000000002
20
16.024999999999999
42
-0.41421356237309503
10
-225.57500000000002
20
16.525000000000002
10
-212.57499999999999
20
16.525000000000006
42
-0.41421356237309503
10
-212.07499999999999
20
16.024999999999999
10
-212.07499999999999
20
3.0249999999999999
42
-0.41421356237309503
0
LWPOLYLINE
5
112
100
AcDbEntity
8
0
100
AcDbPolyline
90
8
70
1
43
0.0
10
-231.625
20
2.5249999999999999
10
-244.62500000000003
20
2.5249999999999928
42
-0.41421356237309503
10
-245.12500000000003
20
3.0249999999999999
10
-245.12500000000003
20
16.024999999999999
42
-0.41421356237309503
10
-244.62500000000003
20
16.525000000000002
10
-231.625
20
16.525000000000006
42
-0.41421356237309503
10
-231.125
20
16.024999999999999
10
-231.125
20
3.0249999999999999
42
-0.41421356237309503
0
LWPOLYLINE
5
113
100
AcDbEntity
8
0
100
AcDbPolyline
90
8
70
1
43
0.0
10
-155.42500000000001
20
2.5249999999999999
10
-168.42500000000001
20
2.5249999999999928
42
-0.41421356237309503
10
-168.92500000000001
20
3.0249999999999999
10
-168.92500000000001
20
16.024999999999999
42
-0.41421356237309503
10
-168.42500000000001
20
16.525000000000002
10
-155.42500000000001
20
16.525000000000006
42
-0.41421356237309503
10
-154.92500000000001
20
16.024999999999999
10
-154.92500000000001
20
3.0249999999999999
42
-0.41421356237309503
0
LWPOLYLINE
5
114
100
AcDbEntity
8
0
100
AcDbPolyline
90
8
70
1
43
0.0
10
-174.47500000000002
20
2.5249999999999999
10
-187.47499999999999
20
2.5249999999999928
42
-0.41421356237309503
10
-187.97499999999999
20
3.0249999999999999
10
-187.97499999999999
20
16.024999999999999
42
-0.41421356237309503
10
-187.47499999999999
20
16.525000000000002
10
-174.47500000000002
20
16.525000000000006
42
-0.41421356237309503
10
-173.97500000000002
20
16.024999999999999
10
-173.97500000000002
20
3.0249999999999999
42
-0.41421356237309503
0
LWPOLYLINE
5
115
100
AcDbEntity
8
0
100
AcDbPolyline
90
8
70
1
43
0.0
10
-193.52500000000003
20
2.5249999999999999
10
-206.52500000000003
20
2.5249999999999928
42
-0.41421356237309503
10
-207.02500000000003
20
3.0249999999999999
10
-207.02500000000003
20
16.024999999999999
42
-0.41421356237309503
10
-206.52500000000003
20
16.525000000000002
10
-193.52500000000003
20
16.525000000000006
42
-0.41421356237309503
10
-193.02500000000003
20
16.024999999999999
10
-193.02500000000003
20
3.0249999999999999
42
-0.41421356237309503
0
LWPOLYLINE
5
116
100
AcDbEntity
8
0
100
AcDbPolyline
90
8
70
1
43
0.0
10
-117.32500000000002
20
2.5249999999999999
10
-130.32499999999999
20
2.5249999999999928
42
-0.41421356237309503
10
-130.82499999999999
20
3.0249999999999999
10
-130.82499999999999
20
16.024999999999999
42
-0.41421356237309503
10
-130.32499999999999
20
16.525000000000002
10
-117.32500000000002
20
16.525000000000006
42
-0.41421356237309503
10
-116.82500000000002
20
16.024999999999999
10
-116.82500000000002
20
3.0249999999999999
42
-0.41421356237309503
0
LWPOLYLINE
5
117
100
AcDbEntity
8
0
100
AcDbPolyline
90
8
70
1
43
0.0
10
-136.375
20
2.5249999999999999
10
-149.375
20
2.5249999999999928
42
-0.41421356237309503
10
-149.875
20
3.0249999999999999
10
-149.875
20
16.024999999999999
42
-0.41421356237309503
10
-149.375
20
16.525000000000002
10
-136.375
20
16.525000000000006
42
-0.41421356237309503
10
-135.875
20
16.024999999999999
10
-135.875
20
3.0249999999999999
42
-0.41421356237309503
0
LWPOLYLINE
5
118
100
AcDbEntity
8
0
100
AcDbPolyline
90
8
70
1
43
0.0
10
-98.275000000000006
20
2.5249999999999999
10
-111.27500000000001
20
2.5249999999999928
42
-0.41421356237309503
10
-111.77500000000002
20
3.0249999999999999
10
-111.77500000000002
20
16.024999999999999
42
-0.41421356237309503
10
-111.27500000000001
20
16.525000000000002
10
-98.275000000000006
20
16.525000000000006
42
-0.41421356237309503
10
-97.775000000000006
20
16.024999999999999
10
-97.775000000000006
20
3.0249999999999999
42
-0.41421356237309503
0
LWPOLYLINE
5
119
100
AcDbEntity
8
0
100
AcDbPolyline
90
8
70
1
43
0.0
10
-3.0249999999999999
20
2.5249999999999999
10
-16.024999999999999
20
2.5249999999999995
42
-0.41421356237309503
10
-16.525000000000002
20
3.0249999999999999
10
-16.525000000000002
20
16.024999999999999
42
-0.41421356237309503
10
-16.024999999999999
20
16.525000000000002
10
-3.0249999999999999
20
16.525000000000002
42
-0.41421356237309503
10
-2.5249999999999999
20
16.024999999999999
10
-2.5249999999999999
20
3.0249999999999999
42
-0.41421356237309503
0
LWPOLYLINE
5
120
100
AcDbEntity
8
0
100
AcDbPolyline
90
8
70
1
43
0.0
10
-22.074999999999999
20
2.5249999999999999
10
-35.075000000000003
20
2.5250000000000017
42
-0.41421356237309503
10
-35.575000000000003
20
3.0249999999999999
10
-35.575000000000003
20
16.024999999999999
42
-0.41421356237309503
10
-35.075000000000003
20
16.525000000000002
10
-22.074999999999999
20
16.524999999999999
42
-0.41421356237309503
10
-21.575000000000003
20
16.024999999999999
10
-21.575000000000003
20
3.0249999999999999
42
-0.41421356237309503
0
LWPOLYLINE
5
121
100
AcDbEntity
8
0
100
AcDbPolyline
90
8
70
1
43
0.0
10
-79.224999999999994
20
2.5249999999999999
10
-92.224999999999994
20
2.5249999999999928
42
-0.41421356237309503
10
-92.725000000000009
20
3.0249999999999999
10
-92.725000000000009
20
16.024999999999999
42
-0.41421356237309503
10
-92.224999999999994
20
16.525000000000002
10
-79.224999999999994
20
16.524999999999999
42
-0.41421356237309503
10
-78.724999999999994
20
16.024999999999999
10
-78.724999999999994
20
3.0249999999999999
42
-0.41421356237309503
0
LWPOLYLINE
5
122
100
AcDbEntity
8
0
100
AcDbPolyline
90
8
70
1
43
0.0
10
-73.674999999999997
20
3.0249999999999999
10
-73.674999999999997
20
16.024999999999999
42
-0.41421356237309503
10
-73.174999999999997
20
16.525000000000002
10
-60.174999999999997
20
16.524999999999999
42
-0.41421356237309503
10
-59.675000000000004
20
16.024999999999999
10
-59.675000000000004
20
3.0249999999999999
42
-0.41421356237309503
10
-60.174999999999997
20
2.5249999999999999
10
-73.174999999999997
20
2.5250000000000017
42
-0.41421356237309503
0
LWPOLYLINE
5
123
100
AcDbEntity
8
0
100
AcDbPolyline
90
8
70
1
43
0.0
10
-54.625
20
3.0249999999999999
10
-54.625
20
16.024999999999999
42
-0.41421356237309503
10
-54.125000000000007
20
16.525000000000002
10
-41.125
20
16.524999999999999
42
-0.41421356237309503
10
-40.625
20
16.024999999999999
10
-40.625
20
3.0249999999999999
42
-0.41421356237309503
10
-41.125
20
2.5249999999999999
10
-54.125000000000007
20
2.5250000000000017
42
-0.41421356237309503
0
LWPOLYLINE
5
124
100
AcDbEntity
8
0
100
AcDbPolyline
90
20
70
1
43
0.0
10
-283.22500000000002
20
3.0249999999999999
10
-283.22500000000002
20
16.024999999999999
42
-0.41421356237309503
10
-282.72500000000002
20
16.525000000000002
10
-282.13799999999998
20
16.525000000000002
10
-282.13799999999998
20
18.024999999999999
42
-0.41421356237309503
10
-281.63799999999998
20
18.524999999999999
10
-275.63800000000003
20
18.525000000000006
42
-0.41421356237309503
10
-275.13799999999998
20
18.024999999999999
10
-275.13799999999998
20
16.525000000000002
10
-258.262
20
16.525000000000002
10
-258.26200000000006
20
18.024999999999999
42
-0.41421356237309503
10
-257.76200000000006
20
18.524999999999999
10
-251.762
20
18.525000000000006
42
-0.41421356237309503
10
-251.262
20
18.024999999999999
10
-251.262
20
16.525000000000002
10
-250.67500000000001
20
16.525000000000006
42
-0.41421356237309503
10
-250.17500000000001
20
16.024999999999999
10
-250.17500000000001
20
3.0249999999999999
42
-0.41421356237309503
10
-250.67500000000001
20
2.5249999999999999
10
-282.72500000000002
20
2.5249999999999928
42
-0.41421356237309503
0
LWPOLYLINE
5
125
100
AcDbEntity
8
0
100
AcDbPolyline
90
8
70
1
43
0.0
10
-255.43750000000003
20
83.487499999999983
10
-268.4375
20
83.487499999999983
42
-0.41421356237309503
10
-268.9375
20
83.987499999999997
10
-268.9375
20
96.987500000000011
42
-0.41421356237309503
10
-268.4375
20
97.487500000000011
10
-255.43750000000003
20
97.487500000000011
42
-0.41421356237309503
10
-254.93750000000003
20
96.987500000000011
10
-254.93750000000003
20
83.987499999999997
42
-0.41421356237309503
0
LWPOLYLINE
5
126
100
AcDbEntity
8
0
100
AcDbPolyline
90
8
70
1
43
0.0
10
-242.24375000000003
20
92.724999999999966
10
-226.86250000000001
20
92.724999999999994
42
-0.41421356237309503
10
-226.36250000000001
20
92.22499999999998
10
-226.36250000000001
20
79.22499999999998
42
-0.41421356237309503
10
-226.86250000000001
20
78.724999999999994
10
-242.24375000000003
20
78.72499999999998
42
-0.41421356237309503
10
-242.74375000000003
20
79.22499999999998
10
-242.74374999999998
20
92.22499999999998
42
-0.41421356237309503
0
LWPOLYLINE
5
127
100
AcDbEntity
8
0
100
AcDbPolyline
90
8
70
1
43
0.0
10
-274.48750000000007
20
83.487499999999983
10
-287.48750000000001
20
83.487499999999983
42
-0.41421356237309503
10
-287.98750000000001
20
83.987499999999997
10
-287.98750000000001
20
96.987500000000011
42
-0.41421356237309503
10
-287.48750000000001
20
97.487500000000011
10
-274.48750000000007
20
97.487500000000011
42
-0.41421356237309503
10
-273.98750000000001
20
96.987500000000011
10
-273.98750000000001
20
83.987499999999997
42
-0.41421356237309503
0
LWPOLYLINE
5
128
100
AcDbEntity
8
0
100
AcDbPolyline
90
8
70
1
43
0.0
10
-293.53750000000002
20
83.487499999999983
10
-306.53750000000002
20
83.487499999999983
42
-0.41421356237309503
10
-307.03750000000002
20
83.987499999999997
10
-307.03750000000002
20
96.987500000000011
42
-0.41421356237309503
10
-306.53750000000002
20
97.487500000000011
10
-293.53750000000002
20
97.487500000000011
42
-0.41421356237309503
10
-293.03750000000002
20
96.987500000000011
10
-293.03750000000002
20
83.987499999999997
42
-0.41421356237309503
0
LWPOLYLINE
5
129
100
AcDbEntity
8
0
100
AcDbPolyline
90
8
70
1
43
0.0
10
-274.48750000000007
20
64.4375
10
-287.48750000000001
20
64.4375
42
-0.41421356237309503
10
-287.98750000000001
20
64.9375
10
-287.98750000000001
20
77.9375
42
-0.41421356237309503
10
-287.48750000000001
20
78.4375
10
-274.48750000000007
20
78.437500000000014
42
-0.41421356237309503
10
-273.98750000000001
20
77.9375
10
-273.98750000000001
20
64.9375
42
-0.41421356237309503
0
LWPOLYLINE
5
130
100
AcDbEntity
8
0
100
AcDbPolyline
90
68
70
1
43
0.0
10
4.8500000000000156
20
73.431250000000006
42
0.41421356237309503
10
3.275000000000015
20
75.006250000000009
10
2
20
75.006249999999994
42
-0.41421356237309503
10
2.7755575615628914e-16
20
77.006249999999994
10
0
20
98.440677809038192
42
0.24020053941566927
10
-0.64982517482518465
20
99.715305810795073
42
-0.2402005394156681
10
-1.4750000000000147
20
101.33388105112127
10
-1.4750000000000141
20
105.61250000000001
42
0.41421356237309503
10
-3.0500000000000149
20
107.18750000000001
10
-117.14167000000003
20
107.1875
42
0.41421356237309503
10
-118.71667000000004
20
105.6125
10
-118.71667000000002
20
102.0125
42
-0.41421356237309503
10
-120.71667000000002
20
100.0125
10
-125.11666666666667
20
100.01250000000002
42
-0.41421356237309503
10
-127.11666666666666
20
102.01250000000002
10
-127.11666666666666
20
105.61250000000001
42
0.41421356237309503
10
-128.69166666666666
20
107.18750000000001
10
-242.78333666666668
20
107.1875
42
0.41421356237309503
10
-244.35833666666667
20
105.6125
10
-244.35833666666667
20
102.0125
42
-0.41421356237309503
10
-246.35833666666667
20
100.0125
10
-250.75833333333333
20
100.01250000000002
42
-0.41421356237309503
10
-252.75833333333333
20
102.01250000000002
10
-252.75833333333333
20
105.61250000000001
42
0.41421356237309503
10
-254.33333333333331
20
107.18750000000001
10
-368.42500333333334
20
107.1875
42
0.41421356237309503
10
-370.00000333333332
20
105.6125
10
-370.00000333333338
20
101.33387884372632
42
-0.24020023476583727
10
-370.82517629370636
20
99.715304956947847
42
0.24020023476582456
10
-371.47500000000002
20
98.440678021109832
10
-371.47500000000008
20
77.006249999999994
42
-0.41421356237309503
10
-373.47500000000014
20
75.006249999999994
10
-374.75000000000011
20
75.006249999999994
42
0.41421356237309503
10
-376.32500000000005
20
73.431249999999991
10
-376.32500000000005
20
26.581250000000001
42
0.41421356237309503
10
-374.75000000000011
20
25.006250000000001
10
-373.47499999999997
20
25.006250000000023
42
-0.41421356237309503
10
-371.47499999999991
20
23.006249999999994
10
-371.47500000000002
20
1.5718219788901777
42
0.24020023476582567
10
-370.82517629370636
20
0.29719504305219302
42
-0.24020023476583607
10
-370.00000333333332
20
-1.3213788437263174
10
-370.00000333333332
20
-5.599999999999989
42
0.41421356237309503
10
-368.42500333333334
20
-7.1749999999999892
10
-254.33333333333331
20
-7.1749999999999892
42
0.41421356237309503
10
-252.75833333333333
20
-5.599999999999989
10
-252.75833333333333
20
-2
42
-0.41421356237309503
10
-250.75833333333333
20
-5.5511151231257827e-16
10
-246.35833666666667
20
-6.6613381477509392e-15
42
-0.41421356237309503
10
-244.35833666666667
20
-1.9999999999999996
10
-244.35833666666667
20
-5.599999999999989
42
0.41421356237309503
10
-242.78333666666668
20
-7.1749999999999892
10
-128.69166666666666
20
-7.1749999999999892
42
0.41421356237309503
10
-127.11666666666665
20
-5.599999999999989
10
-127.11666666666665
20
-2
42
-0.41421356237309503
10
-125.11666666666665
20
0
10
-120.71666999999999
20
-7.7715611723760958e-15
42
-0.41421356237309503
10
-118.71667000000001
20
-2.0000000000000009
10
-118.71667000000001
20
-5.5999999999999881
42
0.41421356237309503
10
-117.14167
20
-7.1749999999999892
10
-3.0499999999999972
20
-7.1749999999999883
42
0.41421356237309465
10
-1.4749999999999992
20
-5.5999999999999881
10
-1.4750000000000008
20
-1.3213810511212598
42
-0.24020053941566752
10
-0.64982517482517488
20
0.29719418920493568
42
0.24020053941566799
10
0
20
1.571822190961818
10
-1.9428902930940239e-15
20
23.006249999999994
42
-0.41421356237309503
10
1.9999999999999996
20
25.006249999999994
10
3.2749999999999297
20
25.006249999999994
42
0.41421356237309426
10
4.8499999999999295
20
26.58124999999999
0
LWPOLYLINE
5
131
100
AcDbEntity
8
0
100
AcDbPolyline
90
8
70
1
43
0.0
10
-330.35000000000002
20
92.725000000000009
10
-317.35000000000002
20
92.725000000000009
42
-0.41421356237309503
10
-316.85000000000002
20
92.224999999999994
10
-316.85000000000002
20
79.224999999999994
42
-0.41421356237309503
10
-317.35000000000002
20
78.724999999999994
10
-330.35000000000002
20
78.725000000000023
42
-0.41421356237309503
10
-330.85000000000002
20
79.224999999999994
10
-330.85000000000008
20
92.224999999999994
42
-0.41421356237309503
0
LWPOLYLINE
5
132
100
AcDbEntity
8
0
100
AcDbPolyline
90
8
70
1
43
0.0
10
-297.80000000000001
20
16.024999999999999
10
-297.80000000000001
20
3.0249999999999999
42
-0.41421356237309503
10
-298.30000000000001
20
2.5249999999999999
10
-311.30000000000001
20
2.5249999999999928
42
-0.41421356237309503
10
-311.80000000000001
20
3.0249999999999999
10
-311.80000000000001
20
16.024999999999999
42
-0.41421356237309503
10
-311.30000000000001
20
16.525000000000002
10
-298.30000000000001
20
16.525000000000006
42
-0.41421356237309503
0
LWPOLYLINE
5
133
100
AcDbEntity
8
0
100
AcDbPolyline
90
8
70
1
43
0.0
10
-317.35000000000002
20
40.625
10
-330.35000000000002
20
40.625000000000028
42
-0.41421356237309503
10
-330.85000000000002
20
41.125
10
-330.85000000000002
20
54.125000000000007
42
-0.41421356237309503
10
-330.35000000000002
20
54.625
10
-317.35000000000002
20
54.625000000000014
42
-0.41421356237309503
10
-316.85000000000002
20
54.125000000000007
10
-316.85000000000002
20
41.125
42
-0.41421356237309503
0
LWPOLYLINE
5
134
100
AcDbEntity
8
0
100
AcDbPolyline
90
8
70
1
43
0.0
10
-298.30000000000001
20
40.625
10
-311.30000000000001
20
40.624999999999993
42
-0.41421356237309503
10
-311.80000000000001
20
41.125
10
-311.80000000000001
20
54.125000000000007
42
-0.41421356237309503
10
-311.30000000000001
20
54.625
10
-298.30000000000001
20
54.625000000000014
42
-0.41421356237309503
10
-297.80000000000001
20
54.125000000000007
10
-297.80000000000001
20
41.125
42
-0.41421356237309503
0
LWPOLYLINE
5
135
100
AcDbEntity
8
0
100
AcDbPolyline
90
8
70
1
43
0.0
10
-317.35000000000002
20
2.5249999999999999
10
-330.35000000000002
20
2.5250000000000283
42
-0.41421356237309503
10
-330.85000000000002
20
3.0249999999999999
10
-330.85000000000002
20
16.024999999999999
42
-0.41421356237309503
10
-330.35000000000002
20
16.525000000000002
10
-317.35000000000002
20
16.525000000000006
42
-0.41421356237309503
10
-316.85000000000002
20
16.024999999999999
10
-316.85000000000002
20
3.0249999999999999
42
-0.41421356237309503
0
LWPOLYLINE
5
136
100
AcDbEntity
8
0
100
AcDbPolyline
90
8
70
1
43
0.0
10
-336.39999999999998
20
2.5249999999999999
10
-349.39999999999998
20
2.5250000000000283
42
-0.41421356237309503
10
-349.89999999999998
20
3.0249999999999999
10
-349.89999999999998
20
16.024999999999999
42
-0.41421356237309503
10
-349.39999999999998
20
16.525000000000002
10
-336.39999999999998
20
16.52499999999997
42
-0.41421356237309503
10
-335.90000000000003
20
16.024999999999999
10
-335.90000000000003
20
3.0249999999999999
42
-0.41421356237309503
0
LWPOLYLINE
5
137
100
AcDbEntity
8
0
100
AcDbPolyline
90
8
70
1
43
0.0
10
-355.45000000000005
20
2.5249999999999999
10
-368.44999999999999
20
2.5250000000000283
42
-0.41421356237309503
10
-368.94999999999993
20
3.0249999999999999
10
-368.94999999999993
20
16.024999999999999
42
-0.41421356237309503
10
-368.44999999999999
20
16.525000000000002
10
-355.45000000000005
20
16.52499999999997
42
-0.41421356237309503
10
-354.95000000000005
20
16.024999999999999
10
-354.95000000000005
20
3.0249999999999999
42
-0.41421356237309503
0
LWPOLYLINE
5
138
100
AcDbEntity
8
0
100
AcDbPolyline
90
8
70
1
43
0.0
10
-317.35000000000002
20
21.575000000000003
10
-330.35000000000002
20
21.575000000000028
42
-0.41421356237309503
10
-330.85000000000002
20
22.074999999999999
10
-330.85000000000002
20
35.075000000000003
42
-0.41421356237309503
10
-330.35000000000002
20
35.575000000000003
10
-317.35000000000002
20
35.57500000000001
42
-0.41421356237309503
10
-316.85000000000002
20
35.075000000000003
10
-316.85000000000002
20
22.074999999999999
42
-0.41421356237309503
0
LWPOLYLINE
5
139
100
AcDbEntity
8
0
100
AcDbPolyline
90
8
70
1
43
0.0
10
-336.39999999999998
20
21.575000000000003
10
-349.39999999999998
20
21.575000000000028
42
-0.41421356237309503
10
-349.89999999999998
20
22.074999999999999
10
-349.89999999999998
20
35.075000000000003
42
-0.41421356237309503
10
-349.39999999999998
20
35.575000000000003
10
-336.39999999999998
20
35.574999999999974
42
-0.41421356237309503
10
-335.90000000000003
20
35.075000000000003
10
-335.90000000000003
20
22.074999999999999
42
-0.41421356237309503
0
LWPOLYLINE
5
140
100
AcDbEntity
8
0
100
AcDbPolyline
90
8
70
1
43
0.0
10
-311.80000000000001
20
22.074999999999999
10
-311.80000000000001
20
35.075000000000003
42
-0.41421356237309503
10
-311.30000000000001
20
35.575000000000003
10
-298.30000000000001
20
35.57500000000001
42
-0.41421356237309503
10
-297.80000000000001
20
35.075000000000003
10
-297.80000000000001
20
22.074999999999999
42
-0.41421356237309503
10
-298.30000000000001
20
21.575000000000003
10
-311.30000000000001
20
21.574999999999992
42
-0.41421356237309503
0
LWPOLYLINE
5
141
100
AcDbEntity
8
0
100
AcDbPolyline
90
8
70
1
43
0.0
10
-349.89999999999998
20
79.224999999999994
10
-349.89999999999998
20
92.224999999999994
42
-0.41421356237309503
10
-349.39999999999998
20
92.725000000000009
10
-336.39999999999998
20
92.724999999999966
42
-0.41421356237309503
10
-335.90000000000003
20
92.224999999999994
10
-335.90000000000003
20
79.224999999999994
42
-0.41421356237309503
10
-336.39999999999998
20
78.724999999999994
10
-349.39999999999998
20
78.725000000000023
42
-0.41421356237309503
0
LWPOLYLINE
5
142
100
AcDbEntity
8
0
100
AcDbPolyline
90
20
70
1
43
0.0
10
-354.94999999999999
20
53.538000000000004
10
-353.44999999999999
20
53.537999999999982
42
-0.41421356237309503
10
-352.95000000000005
20
53.038000000000011
10
-352.95000000000005
20
47.038000000000004
42
-0.41421356237309503
10
-353.44999999999999
20
46.538000000000004
10
-354.94999999999999
20
46.538000000000004
10
-354.95000000000005
20
29.662000000000003
10
-353.44999999999999
20
29.661999999999971
42
-0.41421356237309503
10
-352.95000000000005
20
29.161999999999999
10
-352.95000000000005
20
23.161999999999999
42
-0.41421356237309503
10
-353.44999999999999
20
22.661999999999999
10
-354.95000000000005
20
22.661999999999999
10
-354.95000000000005
20
22.074999999999999
42
-0.41421356237309503
10
-355.45000000000005
20
21.575000000000003
10
-368.44999999999999
20
21.575000000000028
42
-0.41421356237309503
10
-368.94999999999993
20
22.074999999999999
10
-368.94999999999993
20
54.125000000000007
42
-0.41421356237309503
10
-368.44999999999999
20
54.625
10
-355.45000000000005
20
54.624999999999979
42
-0.41421356237309503
10
-354.95000000000005
20
54.125000000000007
0
LWPOLYLINE
5
143
100
AcDbEntity
8
0
100
AcDbPolyline
90
8
70
1
43
0.0
10
-336.39999999999998
20
40.625
10
-349.39999999999998
20
40.625000000000028
42
-0.41421356237309503
10
-349.89999999999998
20
41.125
10
-349.89999999999998
20
54.125000000000007
42
-0.41421356237309503
10
-349.39999999999998
20
54.625
10
-336.39999999999998
20
54.624999999999979
42
-0.41421356237309503
10
-335.90000000000003
20
54.125000000000007
10
-335.90000000000003
20
41.125
42
-0.41421356237309503
0
LWPOLYLINE
5
144
100
AcDbEntity
8
0
100
AcDbPolyline
90
8
70
1
43
0.0
10
-298.30000000000001
20
59.675000000000004
10
-311.30000000000001
20
59.674999999999997
42
-0.41421356237309503
10
-311.80000000000001
20
60.174999999999997
10
-311.80000000000001
20
73.174999999999997
42
-0.41421356237309503
10
-311.30000000000001
20
73.674999999999997
10
-298.30000000000001
20
73.675000000000011
42
-0.41421356237309503
10
-297.80000000000001
20
73.174999999999997
10
-297.80000000000001
20
60.174999999999997
42
-0.41421356237309503
0
LWPOLYLINE
5
145
100
AcDbEntity
8
0
100
AcDbPolyline
90
8
70
1
43
0.0
10
-317.35000000000002
20
59.675000000000004
10
-330.35000000000002
20
59.675000000000026
42
-0.41421356237309503
10
-330.85000000000002
20
60.174999999999997
10
-330.85000000000002
20
73.174999999999997
42
-0.41421356237309503
10
-330.35000000000002
20
73.674999999999997
10
-317.35000000000002
20
73.675000000000011
42
-0.41421356237309503
10
-316.85000000000002
20
73.174999999999997
10
-316.85000000000002
20
60.174999999999997
42
-0.41421356237309503
0
LWPOLYLINE
5
146
100
AcDbEntity
8
0
100
AcDbPolyline
90
8
70
1
43
0.0
10
-336.39999999999998
20
59.675000000000004
10
-349.39999999999998
20
59.675000000000026
42
-0.41421356237309503
10
-349.89999999999998
20
60.174999999999997
10
-349.89999999999998
20
73.174999999999997
42
-0.41421356237309503
10
-349.39999999999998
20
73.674999999999997
10
-336.39999999999998
20
73.674999999999969
42
-0.41421356237309503
10
-335.90000000000003
20
73.174999999999997
10
-335.90000000000003
20
60.174999999999997
42
-0.41421356237309503
0
LWPOLYLINE
5
147
100
AcDbEntity
8
0
100
AcDbPolyline
90
11
70
1
43
0.0
10
-220.8125
20
92.724999999999966
10
-177.96875
20
92.725000000000009
42
-0.41421356237309503
10
-177.46875
20
92.224999999999994
10
-177.46875
20
78.224999999999994
42
-0.41421356237309503
10
-177.96875
20
77.724999999999994
10
-183.96875
20
77.724999999999994
42
-0.41421356237309503
10
-184.46875000000003
20
78.224999999999994
10
-184.46875000000003
20
78.724999999999994
10
-220.8125
20
78.72499999999998
42
-0.41421356237309503
10
-221.3125
20
79.22499999999998
10
-221.3125
20
92.22499999999998
42
-0.41421356237309503
0
LWPOLYLINE
5
148
100
AcDbEntity
8
0
100
AcDbPolyline
90
22
70
1
43
0.0
10
-144.81420163019337
20
92.22499999999998
42
0.37282469344767682
10
-144.31932997084408
20
92.653571428875523
42
-0.37282469344767877
10
-141.3501
20
95.225000014901156
10
-115.82500000000002
20
95.225000014901156
42
-0.37282469344767732
10
-112.85577002915595
20
92.653571428875523
42
0.37282469344767682
10
-112.36089836980666
20
92.22499999999998
10
-98.32499998509887
20
92.22499999999998
42
-0.41421356237309503
10
-97.824999985098856
20
91.72499999999998
10
-97.824999985098884
20
79.22499999999998
42
-0.41421356237309503
10
-98.32499998509887
20
78.72499999999998
10
-113.32499999999999
20
78.72499999999998
42
-0.41421356237309503
10
-113.825
20
79.22499999999998
10
-113.825
20
92.22499999999998
42
0.41421356237309764
10
-115.82500000000003
20
94.224999999999994
10
-141.3501
20
94.224999999999994
42
0.41421356237309764
10
-143.35010000000005
20
92.22499999999998
10
-143.35010000000005
20
79.22499999999998
42
-0.41421356237309503
10
-143.85010000000003
20
78.72499999999998
10
-158.85010001490119
20
78.724999999999966
42
-0.41421356237309503
10
-159.35010001490119
20
79.22499999999998
10
-159.35010001490119
20
91.72499999999998
42
-0.41421356237309503
10
-158.85010001490119
20
92.22499999999998
0
LWPOLYLINE
5
149
100
AcDbEntity
8
0
100
AcDbPolyline
90
20
70
1
43
0.0
10
-293.80000000000007
20
4.0500000000000291
10
-293.80000000000001
20
38.392219362275469
42
0.33116210653586259
10
-294.15625
20
38.871109681137732
42
-0.33116210653588146
10
-294.51250000000005
20
39.350000000000009
10
-294.51250000000005
20
49.599999999999994
42
-0.33116210653588285
10
-294.15625
20
50.078890318862264
42
0.33116210653586259
10
-293.80000000000001
20
50.557780637724534
10
-293.80000000000001
20
53.099999999999987
42
-0.41421356237309426
10
-290.55000000000001
20
56.349999999999973
10
-290.47500000000008
20
56.349999999999987
42
-0.41421356237310147
10
-287.22500000000002
20
53.099999999999994
10
-287.22500000000002
20
50.557780637724512
42
0.33116210653586259
10
-286.86874999999998
20
50.078890318862257
42
-0.3311621065358612
10
-286.51249999999999
20
49.599999999999994
10
-286.51249999999999
20
39.349999999999994
42
-0.3311621065358612
10
-286.86874999999998
20
38.871109681137739
42
0.33116210653586259
10
-287.22500000000002
20
38.392219362275469
10
-287.22500000000002
20
4.0500000000000078
42
-0.414213562373066
10
-290.47499999999968
20
0.80000000000001625
10
-290.54999999999967
20
0.79999999999996074
42
-0.41421356237312429
0
LWPOLYLINE
5
150
100
AcDbEntity
8
0
100
AcDbPolyline
90
6
70
1
43
0.0
10
-3.7500000000000355
20
99.487499985098822
10
-116.44167000000003
20
99.487499985098822
42
-0.41421357110198487
10
-116.94167001490118
20
99.987499999999983
42
-0.41421355364420526
10
-116.44167000000003
20
100.48749999999998
10
-3.7500000000000355
20
100.48749999999998
42
-0.41421356237309503
10
-3.2499999850988814
20
99.987499999999983
42
-0.41421356237309503
0
LWPOLYLINE
5
151
100
AcDbEntity
8
0
100
AcDbPolyline
90
6
70
1
43
0.0
10
-242.08333666666672
20
100.48749999999998
10
-129.39166666666665
20
100.48749999999998
42
-0.41421357110198487
10
-128.89166665176549
20
99.987499985098822
42
-0.41421355364421564
10
-129.39166666666668
20
99.487499985098822
10
-242.08333666666672
20
99.487499985098822
42
-0.41421356237309503
10
-242.58333668156786
20
99.987499985098822
42
-0.41421356237309503
0
LWPOLYLINE
5
152
100
AcDbEntity
8
0
100
AcDbPolyline
90
6
70
1
43
0.0
10
-367.72500333333335
20
100.48749999999998
10
-312.44375000000002
20
100.48749999999998
42
-0.41421357110198487
10
-311.94374998509886
20
99.987499985098822
42
-0.41421355364420526
10
-312.44375000000002
20
99.487499985098822
10
-367.72500333333335
20
99.48749998509885
42
-0.41421356237309503
10
-368.22500334823445
20
99.987499985098822
42
-0.41421356237309503
0
LWPOLYLINE
5
153
100
AcDbEntity
8
0
100
AcDbPolyline
90
20
70
1
43
0.0
10
-354.95000000000005
20
60.762000000000015
10
-354.95000000000005
20
60.175000000000018
42
-0.41421356237309503
10
-355.45000000000005
20
59.675000000000026
10
-368.44999999999999
20
59.675000000000047
42
-0.41421356237309503
10
-368.94999999999993
20
60.175000000000018
10
-368.94999999999993
20
92.225000000000037
42
-0.41421356237309503
10
-368.44999999999999
20
92.725000000000023
10
-355.45000000000005
20
92.725000000000009
42
-0.41421356237309503
10
-354.95000000000005
20
92.225000000000037
10
-354.94999999999999
20
91.638000000000019
10
-353.44999999999999
20
91.637999999999963
42
-0.41421356237309503
10
-352.95000000000005
20
91.137999999999991
10
-352.95000000000005
20
85.138000000000005
42
-0.41421356237309503
10
-353.44999999999999
20
84.637999999999991
10
-354.94999999999999
20
84.638000000000034
10
-354.95000000000005
20
67.762000000000029
10
-353.44999999999999
20
67.761999999999972
42
-0.41421356237309503
10
-352.95000000000005
20
67.262
10
-352.95000000000005
20
61.262000000000008
42
-0.41421356237309503
10
-353.44999999999999
20
60.762000000000008
0
CIRCLE
5
154
100
AcDbEntity
8
0
100
AcDbCircle
10
-29.765625
20
47.625
30
0
40
2.5
210
0
220
0
230
1
0
ENDSEC
0
SECTION
2
OBJECTS
0
DICTIONARY
5
C
100
AcDbDictionary
3
ACAD_GROUP
350
D
3
ACAD_MLINESTYLE
350
17
0
DICTIONARY
5
D
100
AcDbDictionary
0
DICTIONARY
5
1A
330
C
100
AcDbDictionary
0
DICTIONARY
5
17
100
AcDbDictionary
0
ENDSEC
0
EOF
